{
	"asset":{
		"generator":"Khronos glTF Blender I/O v3.5.30",
		"version":"2.0"
	},
	"extensionsUsed":[
		"KHR_materials_specular",
		"KHR_materials_ior"
	],
	"scene":0,
	"scenes":[
		{
			"name":"Scene",
			"nodes":[
				1
			]
		}
	],
	"nodes":[
		{
			"mesh":0,
			"name":"Cylinder.001",
			"scale":[
				0.7182905673980713,
				0.5599342584609985,
				0.5599342584609985
			],
			"translation":[
				0,
				0.0016201756661757827,
				0
			]
		},
		{
			"children":[
				0
			],
			"mesh":1,
			"name":"Cube"
		}
	],
	"animations":[
		{
			"channels":[
				{
					"sampler":0,
					"target":{
						"node":1,
						"path":"weights"
					}
				}
			],
			"name":"Shrink",
			"samplers":[
				{
					"input":10,
					"interpolation":"LINEAR",
					"output":11
				}
			]
		}
	],
	"materials":[
		{
			"doubleSided":true,
			"extensions":{
				"KHR_materials_specular":{
					"specularColorFactor":[
						2.371357614441398,
						2.371357614441398,
						2.371357614441398
					]
				},
				"KHR_materials_ior":{
					"ior":1.4500000476837158
				}
			},
			"name":"Metal.001",
			"pbrMetallicRoughness":{
				"baseColorFactor":[
					0.5189437866210938,
					0.5189437866210938,
					0.5189437866210938,
					1
				],
				"roughnessFactor":0.4071146249771118
			}
		},
		{
			"alphaMode":"BLEND",
			"doubleSided":true,
			"extensions":{
				"KHR_materials_specular":{
					"specularColorFactor":[
						1.4514343678250798,
						1.4514343678250798,
						1.4514343678250798
					]
				},
				"KHR_materials_ior":{
					"ior":1.4500000476837158
				}
			},
			"name":"TransparentPlastic",
			"pbrMetallicRoughness":{
				"baseColorFactor":[
					0.6793237924575806,
					0.6793237924575806,
					0.6793237924575806,
					0.32758623361587524
				],
				"metallicFactor":0,
				"roughnessFactor":0.7155172228813171
			}
		}
	],
	"meshes":[
		{
			"name":"Cylinder.002",
			"primitives":[
				{
					"attributes":{
						"POSITION":0,
						"TEXCOORD_0":1,
						"NORMAL":2
					},
					"indices":3,
					"material":0
				}
			]
		},
		{
			"extras":{
				"targetNames":[
					"Shrunk"
				]
			},
			"name":"Cube",
			"primitives":[
				{
					"attributes":{
						"POSITION":4,
						"TEXCOORD_0":5,
						"NORMAL":6
					},
					"indices":7,
					"material":1,
					"targets":[
						{
							"POSITION":8,
							"NORMAL":9
						}
					]
				}
			],
			"weights":[
				0
			]
		}
	],
	"accessors":[
		{
			"bufferView":0,
			"componentType":5126,
			"count":50,
			"max":[
				0.026934463530778885,
				0.0008929619798436761,
				0.0008929619798436761
			],
			"min":[
				-0.026934463530778885,
				-0.0008929619798436761,
				-0.0008929619798436761
			],
			"type":"VEC3"
		},
		{
			"bufferView":1,
			"componentType":5126,
			"count":50,
			"type":"VEC2"
		},
		{
			"bufferView":2,
			"componentType":5126,
			"count":50,
			"type":"VEC3"
		},
		{
			"bufferView":3,
			"componentType":5123,
			"count":132,
			"type":"SCALAR"
		},
		{
			"bufferView":4,
			"componentType":5126,
			"count":168,
			"max":[
				0.0299999937415123,
				0.0029999995604157448,
				0.002000002423301339
			],
			"min":[
				-0.0299999937415123,
				-0.0029999995604157448,
				-0.002000002423301339
			],
			"type":"VEC3"
		},
		{
			"bufferView":5,
			"componentType":5126,
			"count":168,
			"type":"VEC2"
		},
		{
			"bufferView":6,
			"componentType":5126,
			"count":168,
			"type":"VEC3"
		},
		{
			"bufferView":7,
			"componentType":5123,
			"count":456,
			"type":"SCALAR"
		},
		{
			"bufferView":8,
			"componentType":5126,
			"count":168,
			"max":[
				0.0052404385060071945,
				0.0012470101937651634,
				0.0009012972004711628
			],
			"min":[
				-0.00524912029504776,
				-0.0006578101310878992,
				-0.0009012972004711628
			],
			"type":"VEC3"
		},
		{
			"bufferView":9,
			"componentType":5126,
			"count":168,
			"type":"VEC3"
		},
		{
			"bufferView":10,
			"componentType":5126,
			"count":61,
			"max":[
				2.5
			],
			"min":[
				0
			],
			"type":"SCALAR"
		},
		{
			"bufferView":11,
			"componentType":5126,
			"count":61,
			"type":"SCALAR"
		}
	],
	"bufferViews":[
		{
			"buffer":0,
			"byteLength":600,
			"byteOffset":0,
			"target":34962
		},
		{
			"buffer":0,
			"byteLength":400,
			"byteOffset":600,
			"target":34962
		},
		{
			"buffer":0,
			"byteLength":600,
			"byteOffset":1000,
			"target":34962
		},
		{
			"buffer":0,
			"byteLength":264,
			"byteOffset":1600,
			"target":34963
		},
		{
			"buffer":0,
			"byteLength":2016,
			"byteOffset":1864,
			"target":34962
		},
		{
			"buffer":0,
			"byteLength":1344,
			"byteOffset":3880,
			"target":34962
		},
		{
			"buffer":0,
			"byteLength":2016,
			"byteOffset":5224,
			"target":34962
		},
		{
			"buffer":0,
			"byteLength":912,
			"byteOffset":7240,
			"target":34963
		},
		{
			"buffer":0,
			"byteLength":2016,
			"byteOffset":8152,
			"target":34962
		},
		{
			"buffer":0,
			"byteLength":2016,
			"byteOffset":10168,
			"target":34962
		},
		{
			"buffer":0,
			"byteLength":244,
			"byteOffset":12184
		},
		{
			"buffer":0,
			"byteLength":244,
			"byteOffset":12428
		}
	],
	"buffers":[
		{
			"byteLength":12672,
			"uri":"data:application/octet-stream;base64,"
		}
	]
}
